{
  "code": "0",
  "message": "SUCCESS",
  "data": {
    "id": "1035785",
    "createdDate": "2025-09-17 21:04:55",
    "lastModifiedDate": "2025-09-17 21:05:11",
    "name": "1670 S02 1080p NF WEB-DL DDP5.1 Atmos H.264-MWeb",
    "smallDescr": "波兰家族 第二季/1670 | 2025 | 波兰 | 喜剧",
    "imdb": "https://www.imdb.com/title/tt37161627/",
    "imdbRating": null,
    "douban": "https://movie.douban.com/subject/37311281/",
    "doubanRating": "0",
    "dmmCode": "",
    "author": null,
    "category": "402",
    "source": "8",
    "medium": null,
    "standard": "1",
    "videoCodec": "1",
    "audioCodec": "13",
    "team": "44",
    "processing": null,
    "countries": [
      "14"
    ],
    "numfiles": "8",
    "size": "16009852979",
    "labels": "0",
    "labelsNew": [
      "中字"
    ],
    "msUp": "10",
    "anonymous": true,
    "infoHash": null,
    "status": {
      "id": "1035785",
      "createdDate": "2025-09-17 21:04:55",
      "lastModifiedDate": "2025-09-17 21:04:55",
      "pickType": "normal",
      "toppingLevel": "2",
      "toppingEndTime": "2025-09-18 00:04:55",
      "discount": "FREE",
      "discountEndTime": "2025-09-18 09:04:55",
      "timesCompleted": "0",
      "comments": "0",
      "lastAction": null,
      "lastSeederAction": null,
      "views": "0",
      "hits": "0",
      "support": "0",
      "oppose": "0",
      "status": "NORMAL",
      "seeders": "1",
      "leechers": "402",
      "banned": false,
      "visible": true,
      "promotionRule": null,
      "mallSingleFree": null
    },
    "dmmInfo": null,
    "editedBy": null,
    "editDate": null,
    "collection": false,
    "inRss": false,
    "canVote": false,
    "imageList": [
      "https://api.gateway996.com/api/media/redirect?seconds=1758108593&payload=uri%3Dhttps://img2.doubanio.com/f/frodo/568eb8fac54d39fe599b0de8c3f2aee1dbc43cf0/pics/subject/tv_large.jpg%26zone%3Ddoubanimg2&sign=c437a0348cf9c0df1cff930937987571"
    ],
    "resetBox": null,
    "originFileName": "1670.S02.1080p.NF.WEB-DL.DDP5.1.Atmos.H.264-MWeb.torrent",
    "descr": "[img]https://img9.doubanio.com/view/photo/l_ratio_poster/public/p2925205155.jpg[/img]\n\n◎译　　名　波兰家族 第二季\n◎片　　名　1670\n◎年　　代　2025\n◎产　　地　波兰\n◎类　　别　喜剧\n◎语　　言　波兰语\n◎上映日期　2025(波兰)\n◎IMDb评分  0/10 from 0 users\n◎IMDb链接  https://www.imdb.com/title/tt37161627/\n◎豆瓣评分　/10 from 0 users\n◎豆瓣链接　https://movie.douban.com/subject/37311281/\n\n◎简　　介\n\n　　No exact release date has been set yet, although in a reply to somebody asking on social media, Netflix’s Polish account confirmed the return will be in the Fall of 2025.\n\r\n![](https://img.m-team.cc/images/2025/09/17/76c2edc2beaaadf571330887eec2d541.jpg)\r\n![](https://img.m-team.cc/images/2025/09/17/93bec5bc9bc2bca0e9d2f18f62686295.png)\r\n![](https://img.m-team.cc/images/2025/09/17/9f419b2145e12f1b21220a643cfa3257.png)",
    "nfo": null,
    "mediainfo": "General\nUnique ID                : 108537433978168222583197670902889854702 (0x51A78CA6B1B2FD5FE9E8E9ED08AA36EE)\nComplete name            : 1670.S02E02.1080p.NF.WEB-DL.DDP5.1.Atmos.H.264-MWeb.mkv\nFormat                   : Matroska\nFormat version           : Version 4\nFile Size                : 2.12 GiB\nDuration                 : 37 min 10 s\nOverall bit rate         : 8 170 kb/s\nOverall bit rate mode    : Variable\nFrame rate               : 24.000 FPS\nEncoded date             : 2025-09-17 10:46:55 UTC\nWriting application      : mkvmerge v86.0 ('Winter') 64-bit\nWriting library          : libebml v1.4.5 + libmatroska v1.7.1\n\nVideo\nID                       : 1\nFormat                   : AVC\nFormat/Info              : Advanced Video Codec\nFormat profile           : High@L4\nFormat settings          : CABAC / 4 Ref Frames\nCodec ID                 : V_MPEG4/ISO/AVC\nDuration                 : 37 min 10 s\nBit rate                 : 7 400 kb/s\nMaximum bit rate         : 20.0 Mb/s\nWidth                    : 1 920 pixels\nHeight                   : 1 080 pixels\nDisplay aspect ratio     : 16:9\nFrame rate mode          : Constant\nFrame rate               : 24.000 FPS\nColor space              : YUV\nChroma subsampling       : 4:2:0\nBit depth                : 8 bits\nScan type                : Progressive\nBits/(Pixel*Frame)       : 0.149\nStream size              : 1.92 GiB (91%)\nWriting library          : x264 core 148 r2746 95846cf\nEncoding settings        : cabac=1 / ref=4 / deblock=1:0:0 / analyse=0x3:0x111 / me=umh / subme=10 / psy=1 / psy_rd=1.00:0.00 / mixed_ref=1 / me_range=120 / chroma_me=1 / trellis=2 / 8x8dct=1 / cqm=0 / deadzone=21,11 / fast_pskip=1 / chroma_qp_offset=-2 / threads=8 / lookahead_threads=2 / sliced_threads=0 / nr=0 / decimate=1 / interlaced=0 / bluray_compat=0 / stitchable=1 / constrained_intra=0 / bframes=16 / b_pyramid=2 / b_adapt=2 / b_bias=0 / direct=3 / weightb=1 / open_gop=0 / weightp=2 / keyint=240 / keyint_min=121 / scenecut=0 / intra_refresh=0 / rc_lookahead=240 / rc=crf / mbtree=1 / crf=17.0 / qcomp=0.50 / qpmin=6 / qpmax=51 / qpstep=4 / vbv_maxrate=20000 / vbv_bufsize=25000 / crf_max=0.0 / nal_hrd=vbr / filler=0 / ip_ratio=1.40 / aq=1:0.80\nDefault                  : Yes\nForced                   : No\n\nAudio\nID                       : 2\nFormat                   : E-AC-3 JOC\nFormat/Info              : Enhanced AC-3 with Joint Object Coding\nCommercial name          : Dolby Digital Plus with Dolby Atmos\nCodec ID                 : A_EAC3\nDuration                 : 37 min 10 s\nBit rate mode            : Constant\nBit rate                 : 768 kb/s\nChannel(s)               : 6\nChannel layout           : L R C LFE Ls Rs\nSampling rate            : 48.0 kHz\nFrame rate               : 31.250 FPS (1536 SPF)\nCompression mode         : Lossy\nStream size              : 204 MiB (9%)\nTitle                    : Polish\nLanguage                 : Polish\nService kind             : Complete Main\nDefault                  : Yes\nForced                   : No\n\nText #1\nID                       : 3\nFormat                   : UTF-8\nCodec ID                 : S_TEXT/UTF8\nCodec ID/Info            : UTF-8 Plain Text\nDuration                 : 35 min 39 s\nBit rate                 : 47 b/s\nCount of elements        : 496\nStream size              : 12.3 KiB (0%)\nTitle                    : Simplified\nLanguage                 : Chinese (Simplified)\nDefault                  : Yes\nForced                   : No\n\nText #2\nID                       : 4\nFormat                   : UTF-8\nCodec ID                 : S_TEXT/UTF8\nCodec ID/Info            : UTF-8 Plain Text\nDuration                 : 35 min 39 s\nBit rate                 : 47 b/s\nCount of elements        : 503\nStream size              : 12.4 KiB (0%)\nTitle                    : Traditional\nLanguage                 : Chinese (Traditional)\nDefault                  : No\nForced                   : No\n\nText #3\nID                       : 5\nFormat                   : UTF-8\nCodec ID                 : S_TEXT/UTF8\nCodec ID/Info            : UTF-8 Plain Text\nDuration                 : 35 min 39 s\nBit rate                 : 53 b/s\nCount of elements        : 484\nStream size              : 13.9 KiB (0%)\nTitle                    : English\nLanguage                 : English\nDefault                  : No\nForced                   : No\n\n",
    "cids": null,
    "aids": null,
    "scope": "NORMAL",
    "scopeTeams": null,
    "thanked": false,
    "rewarded": false,
    "albumList": null
  }
}